<svg version="1.1" viewBox="0.0 0.0 681.9055118110236 657.1417322834645" fill="none" stroke="none" stroke-linecap="square" stroke-miterlimit="10" xmlns:xlink="http://www.w3.org/1999/xlink" xmlns="http://www.w3.org/2000/svg"><clipPath id="p.0"><path d="m0 0l681.9055 0l0 657.1417l-681.9055 0l0 -657.1417z" clip-rule="nonzero"/></clipPath><g clip-path="url(#p.0)"><path fill="#000000" fill-opacity="0.0" d="m0 0l681.9055 0l0 657.1417l-681.9055 0z" fill-rule="evenodd"/><path fill="#674ea7" d="m13.480315 123.81049l0 0c0 -57.859146 46.904102 -104.763245 104.76325 -104.763245l443.79636 0l0 0c27.784912 0 54.431885 11.037523 74.0788 30.684444c19.646912 19.64692 30.684448 46.29386 30.684448 74.078804l0 419.04047c0 57.85913 -46.904114 104.763245 -104.763245 104.763245l-443.79636 0c-57.85915 0 -104.76325 -46.904114 -104.76325 -104.763245z" fill-rule="evenodd"/><path fill="#1c4587" d="m160.0 305.71652l0 0c0 -83.634155 69.92819 -151.43306 156.18896 -151.43306l0 0c41.42389 0 81.151184 15.954514 110.44229 44.353714c29.291107 28.399216 45.746704 66.91681 45.746704 107.079346l0 0c0 83.634186 -69.92819 151.43307 -156.189 151.43307l0 0c-86.26077 0 -156.18896 -67.79889 -156.18896 -151.43307z" fill-rule="evenodd"/><path fill="#b45f06" d="m482.8609 131.4252l0 0c0 43.81703 -33.886963 83.638336 -86.81311 102.015976c-52.926117 18.377625 -115.23865 11.959824 -159.63493 -16.441422c-44.396286 -28.401245 -62.77925 -73.60603 -47.09427 -115.80761l144.01476 30.233055z" fill-rule="evenodd"/><path fill="#000000" fill-opacity="0.0" d="m205.71391 194.28346c21.587494 6.6666718 89.52492 37.14261 129.52492 40.0c40.0 2.8573914 92.06256 -19.046371 110.47507 -22.855637" fill-rule="evenodd"/><path stroke="#000000" stroke-width="16.0" stroke-linejoin="round" stroke-linecap="butt" d="m205.71391 194.28346c21.587494 6.6666718 89.52492 37.14261 129.52492 40.0c40.0 2.8573914 92.06256 -19.046371 110.47507 -22.855637" fill-rule="evenodd"/><path fill="#000000" fill-opacity="0.0" d="m439.69577 211.47937l0 0c6.0272827 -9.497559 37.910248 -0.056747437 71.212585 21.086624l0 0c33.302338 21.143372 55.413116 45.982742 49.385834 55.4803l0 0c-6.0272827 9.497559 -37.91028 0.056762695 -71.212616 -21.086609l0 0c-33.302338 -21.143372 -55.413116 -45.982758 -49.385803 -55.480316z" fill-rule="evenodd"/><path stroke="#000000" stroke-width="16.0" stroke-linejoin="round" stroke-linecap="butt" d="m439.69577 211.47937l0 0c6.0272827 -9.497559 37.910248 -0.056747437 71.212585 21.086624l0 0c33.302338 21.143372 55.413116 45.982742 49.385834 55.4803l0 0c-6.0272827 9.497559 -37.91028 0.056762695 -71.212616 -21.086609l0 0c-33.302338 -21.143372 -55.413116 -45.982758 -49.385803 -55.480316z" fill-rule="evenodd"/><path fill="#000000" fill-opacity="0.0" d="m449.5873 201.04941l0 0c2.139557 -11.045685 35.270508 -13.915298 74.00003 -6.409439l0 0c38.729492 7.5058594 68.39148 22.54486 66.25195 33.590546l0 0c-2.1395874 11.0457 -35.270508 13.915314 -74.0 6.4094543l0 0c-38.729523 -7.5058594 -68.39154 -22.54486 -66.25198 -33.59056z" fill-rule="evenodd"/><path stroke="#000000" stroke-width="16.0" stroke-linejoin="round" stroke-linecap="butt" d="m449.5873 201.04941l0 0c2.139557 -11.045685 35.270508 -13.915298 74.00003 -6.409439l0 0c38.729492 7.5058594 68.39148 22.54486 66.25195 33.590546l0 0c-2.1395874 11.0457 -35.270508 13.915314 -74.0 6.4094543l0 0c-38.729523 -7.5058594 -68.39154 -22.54486 -66.25198 -33.59056z" fill-rule="evenodd"/><path fill="#f1c232" d="m86.568245 479.34607c8.86895 0 15.253487 1.4719238 19.153587 4.415741c3.9188461 2.9438171 5.8782654 7.350189 5.8782654 13.219086c0 6.225128 -2.418808 11.156494 -7.256424 14.794098c-4.837616 3.618866 -11.2877655 5.428253 -19.350471 5.428253l-25.397491 0l0 -20.559875c0 -2.8875732 0.14062881 -5.2220154 0.42188263 -7.003296c0.3000183 -1.7812805 0.88129044 -3.2156982 1.7437935 -4.3032227c0.86252975 -1.1062927 2.156311 -2.0063171 3.8813438 -2.7000732c1.7250366 -0.6937561 4.087593 -1.3875427 7.087677 -2.0812988c1.6125259 -0.3374939 3.7969666 -0.6187744 6.5532837 -0.8437805c2.7750778 -0.2437439 5.203247 -0.3656311 7.2845535 -0.3656311zm6.04702 47.70117c5.9813995 0 10.959648 0.4031372 14.934738 1.2094116c3.9750977 0.8062744 7.143921 1.9594116 9.506477 3.4594727c2.3625565 1.5 4.031357 3.3469238 5.006378 5.5407104c0.97501373 2.1751099 1.462532 4.706421 1.462532 7.593933c0 3.9188843 -0.7218857 7.378357 -2.16568 10.378418c-1.4250259 2.9813232 -3.7219543 5.45636 -6.890793 7.425171c-3.1688232 1.9500732 -7.3220444 3.4500732 -12.459679 4.500122c-5.1188736 1.03125 -11.306526 1.546875 -18.56295 1.546875c-5.418892 0 -9.684631 -0.140625 -12.797188 -0.421875c-3.1125793 -0.2999878 -5.5032654 -0.8812256 -7.1720467 -1.7437744c-1.6687813 -0.8625488 -2.7375565 -2.1000366 -3.2063293 -3.7125854c-0.4500084 -1.6125488 -0.6750145 -3.6844482 -0.6750145 -6.2157593l0 -29.56012zm-0.70314026 -57.545166c-6.6751556 0 -12.872177 0.4031372 -18.59108 1.2094116c-5.7001495 0.8062744 -10.565891 1.9594421 -14.597233 3.4594727c-3.2250862 1.1437683 -5.8782654 2.3250427 -7.959568 3.5438232c-2.062542 1.2000427 -3.6750717 2.671936 -4.837616 4.415741c-1.1437874 1.7250366 -1.9500656 3.7688293 -2.418808 6.1314087c-0.4500122 2.3625488 -0.6750183 5.156372 -0.6750183 8.381439l0 64.97034c0 3.3375854 0.5156288 6.187622 1.5469131 8.550232c1.0500145 2.3625488 2.8125687 4.265686 5.287628 5.7094727c2.4750595 1.4250488 5.756401 2.4562988 9.84399 3.093811c4.0875893 0.6375122 9.187702 0.9562988 15.300373 0.9562988c11.062759 0 20.822372 -0.9750366 29.27884 -2.9250488c8.475204 -1.968811 15.534752 -4.734497 21.178635 -8.297119c5.6438904 -3.5812988 9.900238 -7.7626953 12.769058 -12.544006c2.8875732 -4.781372 4.33136 -10.050293 4.33136 -15.806641c0 -6.9189453 -2.5688171 -12.131592 -7.706436 -15.637878c-5.118881 -3.5063477 -13.4347 -5.550171 -24.94748 -6.1314087c3.4500732 -1.3875732 6.4689026 -3.1126099 9.056465 -5.17511c2.606308 -2.0813293 4.771988 -4.3876343 6.497032 -6.9189453c1.7250519 -2.531311 2.9907074 -5.118866 3.7969666 -7.7626953c0.8062744 -2.6625671 1.2094116 -5.3157654 1.2094116 -7.959564c0 -2.7750854 -0.69377136 -5.428253 -2.0812988 -7.959564c-1.3875427 -2.531311 -3.6375961 -4.772003 -6.750168 -6.722046c-3.0938263 -1.968811 -7.0595474 -3.5532227 -11.897163 -4.753235c-4.8376236 -1.2187805 -10.715889 -1.828186 -17.634804 -1.828186z" fill-rule="evenodd"/><path fill="#f1c232" d="m231.01562 481.25864c5.6438904 0 10.800262 0.8062439 15.469131 2.4187927c4.668869 1.6125488 8.700211 3.9188538 12.09404 6.918915c3.3938293 2.9813232 6.0376587 6.6095276 7.9314575 10.884644c1.9125366 4.2563477 2.868805 8.972107 2.868805 14.147247c0 6.58136 -1.3875122 12.98468 -4.1625977 19.209839c-2.7563171 6.20636 -6.637665 11.794006 -11.644028 16.762878c-5.006378 4.9501343 -10.969025 8.925232 -17.88794 11.925293c-6.918915 2.9813232 -14.522232 4.471985 -22.809937 4.471985c-5.418869 0 -10.378372 -0.75 -14.878479 -2.250061c-4.481369 -1.500061 -8.3064575 -3.656311 -11.475281 -6.468872c-3.1688232 -2.8313599 -5.615753 -6.3189087 -7.340805 -10.462769c-1.7250519 -4.14386 -2.587555 -8.925232 -2.587555 -14.344116c0 -7.3688965 1.4062805 -14.30658 4.2188416 -20.812988c2.831314 -6.5064087 6.722046 -12.150299 11.672165 -16.931671c4.950119 -4.781372 10.734634 -8.550201 17.353546 -11.306519c6.637665 -2.7750854 13.697205 -4.1625977 21.178635 -4.1625977zm6.91893 -11.925293c-10.7252655 0 -21.009888 1.9312744 -30.853882 5.7938843c-9.843994 3.8625793 -18.544205 9.047089 -26.100632 15.553497c-7.537689 6.5064087 -13.55658 14.053467 -18.056686 22.641174c-4.481369 8.56897 -6.722046 17.578552 -6.722046 27.028809c0 6.000122 1.1531525 11.447144 3.4594574 16.341003c2.306305 4.89386 5.6438904 9.065857 10.012741 12.51593c4.368866 3.4500732 9.722122 6.1032715 16.059769 7.9595947c6.3376617 1.8375244 13.537842 2.7562866 21.600525 2.7562866c7.725189 0 15.131622 -1.0031738 22.2193 -3.0094604c7.0876617 -2.0250244 13.678452 -4.7626343 19.772354 -8.2127075c6.1126404 -3.468811 11.644028 -7.500183 16.594162 -12.093994c4.9501038 -4.612671 9.1502075 -9.562744 12.600281 -14.850403c3.4688416 -5.3063354 6.150177 -10.781494 8.043945 -16.425415c1.9125671 -5.6625977 2.8688354 -11.250244 2.8688354 -16.762878c0 -5.7751465 -1.2375183 -11.081512 -3.7125854 -15.919128c-2.4750671 -4.837616 -5.9626465 -8.981476 -10.462769 -12.431549c-4.5000916 -3.4501038 -9.918976 -6.12204 -16.256622 -8.015839c-6.318924 -1.9125366 -13.340973 -2.868805 -21.066147 -2.868805z" fill-rule="evenodd"/><path fill="#f1c232" d="m362.01556 469.33334c-8.193939 0 -15.403503 0.7781372 -21.628662 2.3344116c-6.2063904 1.5563049 -11.419006 3.7219849 -15.637878 6.49704c-4.2001038 2.7563171 -7.3970337 6.0095215 -9.590851 9.759613c-2.1750488 3.7313538 -3.2625732 7.725189 -3.2625732 11.981537c0 6.3376465 1.7250366 11.522156 5.17511 15.553528c3.4501038 4.031311 9.440857 7.3220215 17.97232 9.87207l33.863342 10.012756c3.6938171 1.031311 6.6657715 2.0062866 8.9158325 2.9251099c2.250061 0.9187622 3.9750977 1.875 5.17511 2.8687744c1.2187805 0.9750366 2.025055 2.0719604 2.4188232 3.2907104c0.4125061 1.2000122 0.6187744 2.6063232 0.6187744 4.218872c0 2.531311 -0.7500305 4.9782715 -2.250061 7.3408203c-1.5000305 2.3625488 -3.7219849 4.471985 -6.665802 6.328247c-2.9250488 1.8375854 -6.5532837 3.3001099 -10.884644 4.3876343c-4.3125916 1.0875244 -9.2908325 1.6312866 -14.934723 1.6312866c-3.9188538 0 -7.640808 -0.5437622 -11.165894 -1.6312866c-3.5063477 -1.0875244 -6.675171 -2.5219727 -9.5065 -4.3032227c-2.812561 -1.8000488 -5.2313538 -3.9094849 -7.2564087 -6.328308c-2.0063171 -2.4188232 -3.4125977 -5.0063477 -4.218872 -7.7626953c-1.3875122 -4.3875732 -2.8875427 -7.331421 -4.5000916 -8.831482c-1.6125488 -1.5 -3.8532104 -2.25 -6.722046 -2.25c-2.8875732 0 -5.2313843 0.984375 -7.0314026 2.953186c-1.781311 1.9500122 -2.6719666 4.6032104 -2.6719666 7.9595337c0 4.4813843 1.2375488 8.681519 3.712616 12.600342c2.493805 3.9188232 5.9813843 7.2939453 10.462738 10.125244c4.500122 2.812561 9.97525 5.0250854 16.425415 6.6376343c6.4501343 1.6125488 13.65033 2.4188232 21.600525 2.4188232c8.175171 0 15.656616 -1.125 22.444275 -3.375061c6.806427 -2.250061 12.6284485 -5.0720215 17.466064 -8.465881c4.837616 -3.3937988 8.606445 -7.1345215 11.306519 -11.222107c2.718811 -4.0875854 4.0782166 -8.034607 4.0782166 -11.840942c0 -2.7750244 -0.3468628 -5.2782593 -1.0406494 -7.5095215c-0.6937561 -2.250061 -1.9031677 -4.265747 -3.6282043 -6.047058c-1.7250366 -1.8000488 -4.003235 -3.4125977 -6.8345337 -4.8375854c-2.8125916 -1.4437866 -6.2907715 -2.8032227 -10.434631 -4.078247l-36.81653 -10.547119c-6.1126404 -1.7250366 -10.265869 -3.6469727 -12.459686 -5.7657776c-2.1750488 -2.1375427 -3.2625732 -4.875122 -3.2625732 -8.212677c0 -4.725128 2.156311 -8.784607 6.4689026 -12.178436c4.33136 -3.4125671 10.472137 -5.118866 18.422333 -5.118866c6.5626526 0 12.319061 1.0968933 17.269165 3.2907104c4.9501343 2.1937866 9.440857 5.709503 13.4721985 10.547119c0.9187927 1.1437683 2.2406921 2.118805 3.9657288 2.9250793c1.7438049 0.8062744 3.7688293 1.2093811 6.0751343 1.2093811c3.5625916 0 6.290802 -0.9187622 8.184601 -2.7563171c1.9125366 -1.8375244 2.868805 -3.9094543 2.868805 -6.2157593c0 -3.0000916 -1.4156494 -5.7376404 -4.2469788 -8.2127075c-2.812561 -2.4750671 -6.4689026 -4.6313477 -10.969025 -6.4689026c-4.4813538 -1.8562927 -9.4314575 -3.2719421 -14.850342 -4.2469788c-5.4188843 -0.9750366 -10.715881 -1.4625244 -15.891022 -1.4625244z" fill-rule="evenodd"/><path fill="#f1c232" d="m480.732 469.33334c-8.19397 0 -15.403503 0.7781372 -21.628662 2.3344116c-6.2063904 1.5563049 -11.419006 3.7219849 -15.637878 6.49704c-4.2001038 2.7563171 -7.397064 6.0095215 -9.590851 9.759613c-2.1750488 3.7313538 -3.2625732 7.725189 -3.2625732 11.981537c0 6.3376465 1.7250366 11.522156 5.17511 15.553528c3.4501038 4.031311 9.440857 7.3220215 17.97232 9.87207l33.86331 10.012756c3.6938477 1.031311 6.665802 2.0062866 8.915863 2.9251099c2.250061 0.9187622 3.9750977 1.875 5.17511 2.8687744c1.2187805 0.9750366 2.025055 2.0719604 2.4188232 3.2907104c0.4125061 1.2000122 0.6187439 2.6063232 0.6187439 4.218872c0 2.531311 -0.75 4.9782715 -2.2500305 7.3408203c-1.500061 2.3625488 -3.7219849 4.471985 -6.665802 6.328247c-2.9250793 1.8375854 -6.5532837 3.3001099 -10.884644 4.3876343c-4.3125916 1.0875244 -9.2908325 1.6312866 -14.934723 1.6312866c-3.9188538 0 -7.6408386 -0.5437622 -11.165894 -1.6312866c-3.5063477 -1.0875244 -6.675171 -2.5219727 -9.5065 -4.3032227c-2.812561 -1.8000488 -5.2313538 -3.9094849 -7.2564087 -6.328308c-2.0063171 -2.4188232 -3.4125977 -5.0063477 -4.218872 -7.7626953c-1.3875122 -4.3875732 -2.8875427 -7.331421 -4.5000916 -8.831482c-1.6125488 -1.5 -3.853241 -2.25 -6.722046 -2.25c-2.8875732 0 -5.2313843 0.984375 -7.031433 2.953186c-1.7812805 1.9500122 -2.671936 4.6032104 -2.671936 7.9595337c0 4.4813843 1.2375488 8.681519 3.7125854 12.600342c2.4938354 3.9188232 5.981415 7.2939453 10.462769 10.125244c4.500122 2.812561 9.97525 5.0250854 16.425385 6.6376343c6.450165 1.6125488 13.65036 2.4188232 21.600525 2.4188232c8.175201 0 15.656647 -1.125 22.444305 -3.375061c6.806427 -2.250061 12.6284485 -5.0720215 17.466064 -8.465881c4.8375854 -3.3937988 8.606445 -7.1345215 11.306519 -11.222107c2.718811 -4.0875854 4.078247 -8.034607 4.078247 -11.840942c0 -2.7750244 -0.34692383 -5.2782593 -1.0406494 -7.5095215c-0.6937866 -2.250061 -1.9031982 -4.265747 -3.6282349 -6.047058c-1.7250366 -1.8000488 -4.003235 -3.4125977 -6.8345337 -4.8375854c-2.8125916 -1.4437866 -6.2907715 -2.8032227 -10.434631 -4.078247l-36.81653 -10.547119c-6.112671 -1.7250366 -10.265869 -3.6469727 -12.459686 -5.7657776c-2.1750488 -2.1375427 -3.2625732 -4.875122 -3.2625732 -8.212677c0 -4.725128 2.156311 -8.784607 6.4689026 -12.178436c4.33136 -3.4125671 10.472137 -5.118866 18.422333 -5.118866c6.5626526 0 12.319031 1.0968933 17.269165 3.2907104c4.9501343 2.1937866 9.440857 5.709503 13.4721985 10.547119c0.9187622 1.1437683 2.2406921 2.118805 3.9657288 2.9250793c1.7437744 0.8062744 3.7688293 1.2093811 6.075165 1.2093811c3.562561 0 6.2907715 -0.9187622 8.18457 -2.7563171c1.9125366 -1.8375244 2.8687744 -3.9094543 2.8687744 -6.2157593c0 -3.0000916 -1.4156494 -5.7376404 -4.2469482 -8.2127075c-2.812561 -2.4750671 -6.468933 -4.6313477 -10.969025 -6.4689026c-4.4813538 -1.8562927 -9.431488 -3.2719421 -14.850342 -4.2469788c-5.4188843 -0.9750366 -10.715912 -1.4625244 -15.891022 -1.4625244z" fill-rule="evenodd"/><path fill="#f1c232" d="m589.2467 480.72424c7.9501953 0 14.10968 2.4562988 18.478577 7.368927c4.3875732 4.89386 6.58136 12.928436 6.58136 24.10373l0 5.8500977l-57.376404 0c1.031311 -6.318878 2.6157227 -11.812775 4.753296 -16.481628c2.1375122 -4.6688538 4.61261 -8.55957 7.425171 -11.67215c2.8312988 -3.1125793 5.972046 -5.4188843 9.422058 -6.918915c3.4501343 -1.500061 7.0220947 -2.250061 10.715942 -2.250061zm5.5126343 -11.3909c-7.593933 0 -14.765991 1.6968994 -21.516174 5.0907288c-6.7314453 3.3938599 -12.665955 8.1189575 -17.803589 14.175354c-5.1188354 6.0376587 -9.1502075 13.2378235 -12.093994 21.600525c-2.9251099 8.343933 -4.3876343 17.475403 -4.3876343 27.39441c0 6.4501953 0.6281738 12.759705 1.8843994 18.928589c1.2750854 6.1501465 3.0094604 11.362793 5.203308 15.637878c1.3875122 2.6437988 3.0281982 4.593872 4.921997 5.8501587c1.8937988 1.2750244 3.8250732 1.9125366 5.7938843 1.9125366c2.9813232 0 5.36261 -0.7781372 7.143921 -2.3344116c1.8000488 -1.5563354 2.7000732 -3.3095093 2.7000732 -5.2595215c0 -1.2750244 -0.20629883 -2.5407104 -0.6187744 -3.796997c-0.39379883 -1.2750244 -1.1063232 -2.7750244 -2.1375732 -4.500061c-2.4188232 -4.031372 -4.3219604 -8.953369 -5.7095337 -14.765991c-1.3875122 -5.831421 -2.0812988 -12.544067 -2.0812988 -20.138l58.24829 0l0 43.538574c0 2.1937866 0.7406616 3.9469604 2.2219238 5.2594604c1.500061 1.3312988 3.750122 1.9969482 6.750183 1.9969482c3.000061 0 5.250122 -0.6656494 6.750183 -1.9969482c1.5 -1.3125 2.250061 -3.0656738 2.250061 -5.2594604l0 -64.63284c0 -13.2378235 -3.1126099 -22.997437 -9.337769 -29.27884c-6.2250977 -6.2814026 -15.61908 -9.422089 -28.181885 -9.422089z" fill-rule="evenodd"/></g></svg>